<?xml version="1.0" encoding="utf-8"?>
<!-- Generator: Adobe Illustrator 16.0.4, SVG Export Plug-In . SVG Version: 6.00 Build 0)  -->
<!DOCTYPE svg PUBLIC "-//W3C//DTD SVG 1.1//EN" "http://www.w3.org/Graphics/SVG/1.1/DTD/svg11.dtd">
<svg version="1.1" id="Layer_1" xmlns="http://www.w3.org/2000/svg" xmlns:xlink="http://www.w3.org/1999/xlink" x="0px" y="0px"
	 width="22.678px" height="22.674px" viewBox="0 0 22.678 22.674" enable-background="new 0 0 22.678 22.674" xml:space="preserve">
<g>
	<g>
		<g>
			<path fill="#808080" d="M11.339,18.824c-4.129,0-7.488-3.358-7.488-7.487c0-4.128,3.359-7.487,7.488-7.487
				s7.487,3.358,7.487,7.487C18.826,15.466,15.468,18.824,11.339,18.824z M11.339,5.584c-3.172,0-5.753,2.58-5.753,5.752
				s2.581,5.753,5.753,5.753c3.173,0,5.754-2.581,5.754-5.753S14.512,5.584,11.339,5.584z"/>
			<path fill="#B3B3B3" d="M11.339,4.1c3.99,0,7.237,3.247,7.237,7.237c0,3.99-3.247,7.237-7.237,7.237
				c-3.991,0-7.238-3.247-7.238-7.237C4.101,7.347,7.348,4.1,11.339,4.1 M11.339,17.339c3.311,0,6.004-2.691,6.004-6.003
				c0-3.31-2.693-6.002-6.004-6.002s-6.003,2.692-6.003,6.002C5.336,14.647,8.029,17.339,11.339,17.339 M11.339,3.6
				c-4.267,0-7.738,3.471-7.738,7.737c0,4.267,3.471,7.737,7.738,7.737c4.267,0,7.737-3.471,7.737-7.737
				C19.076,7.071,15.606,3.6,11.339,3.6L11.339,3.6z M11.339,16.839c-3.034,0-5.503-2.469-5.503-5.503
				c0-3.034,2.469-5.502,5.503-5.502c3.035,0,5.504,2.468,5.504,5.502C16.843,14.37,14.374,16.839,11.339,16.839L11.339,16.839z"/>
		</g>
	</g>
</g>
</svg>
